<?xml version="1.0" standalone="no"?>
<!DOCTYPE svg PUBLIC "-//W3C//DTD SVG 20010904//EN"
 "http://www.w3.org/TR/2001/REC-SVG-20010904/DTD/svg10.dtd">
<svg version="1.0" xmlns="http://www.w3.org/2000/svg"
 width="5000.000000pt" height="1302.000000pt" viewBox="0 0 5000.000000 1302.000000"
 preserveAspectRatio="xMidYMid meet">
<metadata>
Created by potrace 1.15, written by Peter Selinger 2001-2017
</metadata>
<g transform="translate(0.000000,1302.000000) scale(0.100000,-0.100000)"
fill="#4a3f45" stroke="none">
<path d="M49710 13010 c0 -10 -69 -32 -79 -26 -5 3 -28 -1 -51 -9 -23 -8 -62
-15 -87 -15 -24 0 -54 -5 -65 -11 -12 -7 -43 -13 -70 -14 -27 -2 -55 -8 -63
-15 -9 -8 -29 -9 -54 -5 -29 5 -46 2 -65 -10 -16 -11 -35 -15 -51 -11 -16 4
-40 -1 -64 -12 -24 -12 -51 -17 -71 -14 -19 3 -35 0 -40 -8 -4 -7 -34 -13 -73
-14 -38 -1 -72 -8 -82 -16 -9 -8 -34 -13 -56 -11 -26 1 -45 -4 -56 -14 -12
-13 -26 -15 -59 -10 -31 4 -52 1 -75 -10 -18 -10 -41 -14 -55 -11 -14 4 -39 0
-57 -8 -18 -8 -61 -16 -96 -18 -38 -3 -66 -9 -69 -17 -2 -7 -15 -9 -37 -5 -21
4 -43 0 -63 -10 -17 -9 -53 -16 -79 -16 -26 0 -59 -6 -73 -13 -18 -10 -32 -11
-47 -4 -18 8 -28 6 -43 -8 -15 -14 -35 -18 -73 -18 -29 1 -67 -5 -85 -14 -19
-8 -44 -12 -58 -9 -15 4 -34 0 -50 -10 -16 -11 -43 -17 -76 -15 -31 1 -60 -4
-74 -14 -15 -9 -34 -13 -53 -9 -19 4 -37 1 -47 -7 -17 -14 -88 -27 -194 -36
-37 -3 -72 -11 -82 -20 -11 -10 -26 -13 -47 -8 -19 4 -41 1 -61 -10 -22 -11
-44 -15 -66 -10 -23 4 -46 0 -76 -15 -28 -13 -45 -17 -52 -10 -12 12 -46 13
-46 1 0 -16 -58 -33 -89 -26 -19 4 -41 1 -61 -10 -20 -11 -42 -14 -61 -10 -22
5 -36 2 -50 -10 -13 -13 -37 -18 -83 -19 -36 -1 -70 -7 -79 -15 -10 -8 -27
-10 -46 -6 -21 4 -38 1 -53 -9 -13 -9 -43 -16 -73 -16 -27 0 -63 -7 -79 -15
-16 -8 -39 -12 -52 -9 -14 4 -39 -1 -59 -10 -23 -11 -46 -14 -73 -10 -26 4
-49 1 -68 -9 -16 -8 -41 -13 -55 -10 -15 3 -40 -3 -60 -15 -23 -12 -46 -17
-72 -14 -20 2 -52 -2 -69 -9 -18 -7 -45 -12 -60 -10 -14 1 -38 -5 -52 -14 -16
-11 -35 -15 -51 -11 -15 4 -38 0 -57 -10 -20 -10 -52 -16 -82 -15 -30 1 -58
-5 -73 -14 -15 -10 -35 -14 -51 -11 -16 4 -39 0 -56 -9 -15 -8 -51 -15 -80
-15 -28 0 -64 -7 -79 -15 -16 -8 -40 -12 -56 -9 -18 4 -38 0 -54 -11 -19 -12
-37 -15 -65 -10 -26 4 -47 1 -67 -10 -18 -9 -41 -13 -57 -9 -17 3 -36 0 -50
-10 -15 -10 -44 -16 -84 -16 -40 0 -64 -4 -66 -12 -3 -8 -21 -12 -47 -11 -25
1 -53 -5 -67 -14 -17 -11 -37 -14 -67 -10 -29 4 -53 1 -71 -8 -16 -8 -42 -15
-60 -15 -17 0 -44 -7 -61 -16 -20 -10 -44 -14 -71 -10 -25 3 -50 0 -68 -9 -16
-8 -45 -15 -65 -15 -20 0 -48 -6 -62 -14 -18 -9 -32 -10 -43 -4 -12 7 -29 4
-57 -10 -27 -14 -52 -18 -78 -15 -23 3 -49 -1 -67 -10 -16 -8 -43 -12 -60 -10
-20 3 -35 -1 -43 -11 -10 -11 -31 -16 -75 -16 -39 0 -69 -5 -82 -15 -12 -9
-31 -12 -51 -9 -21 4 -40 0 -55 -10 -14 -10 -43 -16 -80 -16 -31 0 -60 -4 -63
-10 -3 -5 -30 -10 -59 -10 -37 0 -58 -5 -67 -16 -10 -12 -24 -15 -60 -11 -30
4 -55 1 -74 -9 -32 -16 -55 -18 -55 -4 0 6 -7 10 -15 10 -8 0 -15 -4 -15 -8 0
-5 -18 -16 -40 -26 -32 -14 -44 -15 -55 -6 -11 9 -23 9 -52 -1 -21 -7 -43 -17
-49 -21 -6 -5 -19 -6 -28 -2 -9 3 -35 -1 -57 -10 -28 -12 -55 -15 -83 -11 -32
5 -45 3 -55 -9 -8 -10 -30 -16 -55 -16 -22 -1 -52 -7 -66 -15 -14 -8 -46 -14
-72 -15 -27 0 -48 -4 -48 -10 0 -6 -29 -10 -67 -10 -42 -1 -75 -6 -86 -15 -12
-8 -31 -11 -52 -8 -24 4 -39 1 -51 -12 -14 -13 -29 -16 -68 -12 -35 3 -58 0
-73 -10 -13 -9 -33 -13 -46 -9 -14 3 -39 -2 -63 -15 -26 -13 -49 -18 -71 -14
-19 3 -47 -1 -70 -10 -21 -9 -48 -13 -60 -10 -13 3 -35 -3 -55 -14 -24 -15
-42 -19 -73 -14 -28 3 -52 0 -73 -11 -19 -10 -42 -14 -56 -10 -15 3 -34 -1
-50 -12 -21 -13 -40 -16 -85 -11 -49 4 -59 2 -69 -14 -10 -16 -19 -18 -53 -13
-30 5 -43 3 -50 -7 -5 -9 -28 -14 -66 -14 -34 0 -71 -7 -88 -17 -18 -9 -43
-14 -63 -11 -19 3 -41 -1 -56 -10 -15 -10 -36 -14 -63 -10 -25 3 -50 0 -69
-10 -16 -8 -42 -13 -57 -10 -15 3 -34 0 -43 -7 -8 -7 -36 -14 -62 -14 -27 -1
-57 -9 -71 -18 -18 -13 -36 -16 -67 -11 -28 4 -49 1 -59 -7 -8 -7 -38 -14 -67
-16 -28 -2 -56 -8 -62 -14 -5 -5 -35 -10 -66 -10 -31 0 -64 -6 -75 -14 -11 -7
-39 -13 -63 -13 -24 0 -48 -5 -55 -12 -6 -6 -39 -11 -73 -11 -35 0 -66 -4 -69
-10 -3 -5 -26 -10 -51 -10 -25 0 -55 -7 -69 -16 -17 -11 -36 -14 -68 -9 -34 5
-51 3 -70 -10 -16 -10 -34 -14 -47 -10 -13 4 -36 0 -58 -11 -23 -11 -56 -16
-85 -15 -31 1 -58 -4 -73 -13 -19 -13 -28 -14 -50 -4 -23 11 -28 10 -40 -7
-12 -16 -28 -20 -80 -21 -36 -1 -70 -6 -77 -13 -6 -6 -28 -11 -49 -11 -22 0
-52 -7 -69 -16 -16 -8 -39 -12 -50 -9 -10 4 -33 -1 -51 -9 -17 -9 -53 -16 -79
-16 -26 0 -60 -5 -76 -11 -15 -7 -40 -11 -55 -10 -15 1 -37 -3 -50 -10 -12 -7
-51 -13 -86 -15 -35 -2 -70 -8 -78 -15 -8 -6 -25 -8 -39 -5 -16 4 -34 0 -51
-10 -17 -12 -43 -16 -82 -15 -36 1 -65 -4 -77 -13 -12 -8 -32 -12 -52 -9 -22
4 -37 0 -49 -12 -14 -13 -28 -16 -65 -12 -32 4 -53 1 -65 -8 -11 -8 -42 -15
-71 -15 -30 0 -53 -5 -55 -12 -3 -7 -29 -12 -71 -13 -38 0 -72 -6 -79 -13 -7
-7 -32 -12 -56 -12 -24 0 -53 -5 -65 -12 -12 -6 -41 -10 -64 -9 -23 1 -55 -5
-70 -13 -16 -8 -40 -12 -54 -9 -15 3 -40 -2 -57 -11 -19 -10 -42 -13 -60 -10
-20 4 -39 0 -56 -11 -19 -13 -38 -16 -67 -12 -30 4 -50 0 -72 -13 -19 -12 -40
-17 -57 -13 -16 3 -41 -2 -60 -12 -23 -12 -46 -16 -75 -12 -30 5 -48 2 -65
-10 -13 -9 -38 -16 -56 -15 -17 1 -44 -3 -60 -10 -16 -6 -48 -10 -72 -9 -27 2
-52 -3 -68 -14 -15 -10 -35 -14 -49 -11 -13 3 -39 -1 -59 -9 -19 -8 -57 -15
-83 -15 -26 0 -61 -7 -77 -15 -15 -8 -38 -12 -51 -9 -13 3 -37 -1 -53 -10 -18
-10 -42 -13 -59 -10 -17 3 -45 -1 -67 -10 -21 -9 -53 -16 -71 -16 -18 0 -45
-6 -60 -14 -19 -10 -44 -13 -77 -9 -38 5 -53 2 -68 -12 -14 -12 -29 -16 -52
-12 -21 4 -40 1 -52 -8 -12 -9 -42 -15 -75 -15 -31 0 -69 -7 -85 -15 -15 -8
-38 -12 -51 -9 -13 3 -37 -2 -55 -11 -19 -10 -42 -14 -56 -11 -15 4 -34 0 -49
-10 -19 -12 -37 -15 -70 -11 -24 4 -46 3 -49 -2 -7 -11 -65 -24 -99 -21 -15 1
-35 -4 -44 -12 -9 -7 -41 -13 -76 -13 -39 0 -62 -5 -65 -13 -2 -7 -22 -12 -48
-12 -25 0 -59 -7 -76 -16 -22 -11 -43 -14 -78 -9 -37 5 -50 3 -57 -8 -4 -9
-29 -17 -58 -21 -146 -16 -196 -24 -207 -33 -7 -6 -32 -11 -55 -10 -23 0 -53
-7 -65 -14 -25 -15 -78 -14 -78 2 0 15 -22 10 -34 -7 -7 -9 -30 -17 -51 -18
-22 -2 -56 -10 -75 -19 -23 -10 -51 -13 -83 -10 -38 5 -50 2 -61 -12 -10 -14
-21 -16 -47 -12 -23 4 -41 1 -53 -8 -11 -8 -35 -15 -53 -15 -19 0 -49 -6 -68
-14 -20 -9 -50 -12 -74 -9 -29 4 -49 0 -73 -14 -23 -13 -45 -18 -70 -15 -26 3
-42 -1 -54 -12 -12 -13 -26 -15 -59 -11 -30 5 -52 2 -74 -10 -20 -10 -43 -14
-59 -10 -17 3 -40 -2 -62 -13 -24 -13 -47 -18 -76 -14 -28 3 -49 -1 -66 -12
-17 -11 -35 -14 -57 -10 -23 5 -36 3 -42 -7 -5 -9 -30 -14 -72 -15 -41 -1 -73
-7 -87 -17 -15 -10 -34 -14 -57 -10 -22 4 -38 1 -42 -6 -12 -18 -453 -22 -488
-4 -16 8 -62 13 -127 13 -68 0 -106 4 -114 12 -9 9 -49 13 -126 13 -91 0 -118
3 -132 16 -16 14 -32 15 -99 10 -65 -6 -88 -4 -120 10 -34 14 -54 16 -129 9
-81 -8 -93 -7 -117 11 -25 17 -37 19 -113 11 -75 -7 -90 -5 -123 11 -32 17
-51 19 -133 14 -75 -4 -99 -3 -115 9 -15 12 -43 15 -115 13 -79 -3 -100 0
-123 15 -24 16 -42 18 -129 14 -73 -4 -112 -1 -135 8 -19 9 -70 14 -127 14
-76 0 -95 3 -100 16 -5 13 -21 15 -119 8 -99 -6 -115 -4 -130 11 -14 14 -33
16 -110 14 -71 -2 -99 1 -124 14 -37 20 -153 23 -181 6 -13 -8 -30 -5 -74 15
-61 28 -78 32 -78 16 0 -19 -111 -11 -156 11 -33 16 -47 18 -63 10 -30 -17
-152 -13 -176 5 -15 11 -43 14 -117 13 -70 -2 -101 1 -114 11 -12 11 -43 14
-123 11 -80 -2 -113 1 -135 13 -22 11 -49 13 -112 9 -67 -5 -88 -3 -108 11
-19 12 -50 16 -129 16 -74 0 -116 5 -143 16 -29 12 -58 15 -116 11 -56 -4 -84
-1 -104 10 -21 10 -57 13 -136 12 -93 -3 -110 -1 -128 16 -18 16 -28 17 -98 8
-66 -8 -83 -7 -118 7 -32 14 -59 17 -133 12 -81 -4 -97 -2 -130 16 -34 19 -42
20 -104 9 -55 -9 -74 -9 -100 3 -18 7 -79 16 -137 19 -58 3 -112 10 -120 15
-8 6 -65 9 -126 7 -94 -2 -114 0 -128 15 -15 14 -31 16 -106 11 -72 -5 -92 -3
-111 11 -19 13 -44 16 -130 13 -85 -2 -114 1 -140 14 -26 14 -50 16 -113 12
-64 -3 -88 -1 -116 13 -30 15 -48 17 -123 10 -72 -7 -93 -5 -120 8 -24 12 -54
16 -119 14 -60 -2 -95 1 -115 11 -21 11 -52 13 -124 10 -77 -5 -101 -2 -128
12 -27 14 -48 15 -117 10 -70 -6 -88 -5 -110 9 -20 14 -47 17 -132 15 -82 -1
-114 2 -137 15 -24 12 -47 14 -112 9 -69 -5 -87 -3 -109 12 -22 14 -42 16
-130 12 -91 -5 -106 -4 -126 13 -20 16 -35 18 -109 13 -67 -5 -93 -2 -118 10
-24 12 -51 14 -124 10 -80 -5 -98 -3 -134 15 -37 17 -52 19 -118 11 -66 -7
-80 -6 -109 11 -30 16 -46 18 -128 12 -77 -6 -99 -4 -128 10 -27 13 -52 15
-112 11 -61 -5 -84 -2 -113 11 -31 15 -52 17 -129 11 -77 -6 -98 -4 -125 10
-24 12 -55 16 -119 14 -60 -1 -98 3 -122 14 -26 12 -56 14 -126 10 -81 -5 -96
-3 -126 15 -30 18 -41 20 -110 12 -66 -8 -84 -6 -120 9 -36 16 -57 18 -128 12
-72 -7 -91 -5 -122 10 -30 15 -51 17 -116 12 -71 -5 -85 -3 -117 16 -31 18
-42 19 -78 11 -55 -13 -144 -13 -152 0 -3 6 -15 10 -25 10 -10 0 -20 5 -22 11
-3 8 -25 9 -83 1 -67 -9 -83 -8 -109 6 -24 12 -54 15 -124 13 -74 -2 -99 1
-119 14 -21 14 -43 16 -126 12 -80 -4 -107 -2 -131 10 -23 12 -49 14 -111 10
-70 -5 -86 -3 -114 14 -28 17 -44 18 -125 13 -80 -5 -99 -3 -134 14 -35 17
-52 18 -116 12 -63 -6 -83 -4 -114 10 -31 16 -51 17 -127 11 -78 -7 -94 -6
-123 11 -28 15 -46 17 -111 12 -61 -5 -84 -3 -109 10 -26 13 -49 15 -129 10
-87 -6 -102 -4 -134 14 -32 18 -45 19 -110 12 -60 -7 -79 -5 -104 8 -23 13
-54 16 -135 14 -77 -2 -116 1 -142 13 -28 11 -56 13 -110 9 -59 -5 -81 -3
-107 10 -25 14 -55 17 -134 15 -80 -2 -109 1 -135 15 -27 14 -47 16 -103 10
-54 -5 -79 -3 -115 11 -37 14 -66 17 -140 13 -52 -3 -97 -1 -100 3 -3 5 -14 9
-25 9 -10 0 -19 5 -19 10 0 7 -30 8 -84 4 -74 -6 -88 -4 -128 16 -36 18 -49
20 -66 11 -11 -6 -52 -11 -90 -11 -54 0 -75 4 -95 20 -23 19 -32 20 -109 11
-74 -9 -87 -8 -116 9 -28 17 -42 18 -125 11 -81 -8 -96 -7 -129 10 -30 15 -50
17 -116 12 -66 -5 -88 -3 -118 12 -31 15 -55 17 -135 12 -74 -4 -102 -2 -116
9 -12 9 -49 13 -116 14 -73 0 -104 4 -123 16 -21 14 -42 16 -123 11 -76 -5
-104 -3 -126 9 -21 11 -55 14 -122 13 -74 -2 -96 1 -111 14 -14 13 -33 15
-109 10 -75 -5 -101 -3 -139 12 -36 14 -64 16 -123 12 -62 -4 -84 -1 -115 14
-31 15 -52 17 -114 13 -58 -5 -84 -2 -105 9 -22 11 -51 14 -133 9 -90 -4 -107
-2 -123 12 -16 15 -36 17 -113 15 -59 -2 -101 1 -115 9 -13 7 -65 12 -131 12
-76 0 -118 4 -138 15 -21 10 -47 13 -105 8 -60 -4 -84 -2 -109 11 -25 12 -61
16 -145 16 -89 0 -115 3 -125 15 -10 13 -33 15 -115 13 -75 -2 -106 1 -118 11
-13 10 -42 12 -117 9 -55 -2 -100 0 -100 4 0 4 -8 8 -18 8 -10 0 -23 5 -28 10
-7 7 -38 7 -88 2 -63 -7 -85 -5 -112 7 -19 8 -34 19 -34 23 0 4 -9 8 -20 8
-11 0 -20 -4 -20 -10 0 -16 -163 -13 -186 4 -15 12 -39 14 -111 9 -76 -5 -96
-3 -117 11 -20 12 -50 16 -141 16 -70 0 -115 4 -115 10 0 6 -41 10 -104 10
-74 0 -112 4 -132 15 -22 12 -55 15 -135 13 -82 -2 -111 1 -124 12 -13 11 -40
14 -110 12 -71 -3 -100 0 -124 13 -26 13 -48 15 -115 9 -71 -5 -89 -4 -128 14
-40 17 -56 19 -119 12 -64 -8 -78 -6 -107 11 -30 17 -43 18 -129 10 -80 -7
-100 -6 -127 8 -23 12 -53 15 -119 12 -63 -2 -92 1 -104 10 -12 10 -45 13
-124 11 -85 -2 -115 1 -140 13 -23 12 -53 16 -117 14 -61 -2 -94 1 -112 11
-18 10 -61 14 -144 15 -86 0 -120 3 -123 13 -3 8 -34 12 -107 12 -72 0 -108 4
-121 14 -15 11 -42 13 -115 9 -79 -5 -103 -3 -134 12 -30 14 -53 17 -119 12
-64 -4 -86 -2 -102 9 -16 12 -38 14 -105 9 -72 -6 -92 -4 -130 13 -40 17 -57
19 -135 11 -73 -6 -93 -5 -106 7 -11 10 -42 14 -111 14 -65 0 -108 5 -134 16
-30 12 -56 14 -124 9 -69 -5 -94 -4 -125 9 -28 12 -65 16 -127 15 -61 -1 -93
3 -104 12 -12 10 -46 12 -126 10 -87 -2 -114 1 -134 14 -20 13 -46 16 -119 13
-78 -2 -97 0 -113 15 -17 16 -30 17 -113 8 -83 -8 -98 -7 -131 10 -30 15 -50
17 -116 12 -69 -5 -86 -3 -125 16 -36 17 -50 19 -71 11 -31 -11 -139 -14 -150
-3 -22 22 -81 31 -143 21 -53 -8 -70 -7 -98 6 -24 12 -63 16 -140 16 -75 0
-114 4 -135 15 -23 12 -48 14 -108 9 -64 -5 -84 -3 -112 11 -28 14 -52 17
-132 13 -81 -4 -102 -2 -124 13 -23 15 -41 17 -115 12 -78 -5 -91 -4 -123 17
-33 20 -42 21 -81 11 -65 -16 -124 -13 -169 9 -35 17 -51 18 -116 11 -71 -8
-115 0 -131 21 -3 5 -46 5 -96 0 -76 -6 -97 -5 -129 9 -31 14 -57 16 -119 12
-68 -5 -87 -2 -120 14 -35 18 -51 19 -135 13 -78 -6 -99 -4 -119 9 -19 12 -46
15 -118 13 -74 -3 -100 0 -120 13 -20 13 -42 15 -120 11 -74 -4 -102 -2 -125
10 -21 11 -54 15 -116 13 -61 -2 -95 2 -112 12 -18 10 -59 14 -141 14 -95 0
-120 3 -135 17 -16 14 -30 15 -98 8 -67 -8 -83 -7 -115 9 -29 15 -51 17 -118
13 -65 -3 -88 -1 -107 11 -20 13 -42 15 -123 10 -81 -5 -104 -3 -131 11 -25
13 -48 15 -109 10 -59 -4 -89 -2 -122 10 -28 11 -77 16 -141 16 -66 0 -107 5
-125 14 -21 11 -49 13 -111 9 -68 -5 -88 -3 -109 11 -21 14 -46 16 -142 14
-86 -2 -117 0 -120 10 -3 8 -35 12 -111 12 -82 0 -109 3 -123 16 -15 13 -31
15 -111 7 -92 -8 -114 -5 -149 24 -9 6 -35 9 -66 6 l-53 -6 0 -6433 0 -6434
25000 0 25000 0 0 6511 0 6510 -145 -3 c-80 -2 -145 -5 -145 -8z"/>
</g>
</svg>
