<svg width="30" height="30" viewBox="0 0 30 30" fill="none" xmlns="http://www.w3.org/2000/svg">
<path d="M16.6663 13.9312L14.6036 13.4735C13.819 13.2947 12.9158 13.0585 12.9158 12.3188C12.9158 11.5774 13.5494 11.0595 14.6931 11.0595C16.9982 11.0595 16.7876 12.6436 17.932 12.6436C18.5342 12.6436 19.0613 12.2895 19.0613 11.6806C19.0613 10.26 16.7876 9.19385 14.8588 9.19385C12.765 9.19385 10.5352 10.0831 10.5352 12.4513C10.5352 13.5918 10.9426 14.8051 13.187 15.3679L15.9739 16.0637C16.8173 16.2716 17.0284 16.746 17.0284 17.174C17.0284 17.8859 16.3213 18.5812 15.0405 18.5812C12.5386 18.5812 12.8858 16.6558 11.545 16.6558C10.9426 16.6558 10.5055 17.0708 10.5055 17.6629C10.5055 18.8174 11.9071 20.358 15.0405 20.358C18.0217 20.358 19.4989 18.9211 19.4989 16.9967C19.4989 15.7541 18.926 14.4348 16.6663 13.9312Z" fill="#336699"/>
<path d="M15 0C6.717 0 0 6.717 0 15C0 23.283 6.717 30 15 30C23.283 30 30 23.283 30 15C30 6.717 23.283 0 15 0ZM22.8097 22.7875C21.8234 23.7742 20.5128 24.3164 19.1185 24.3164C18.2153 24.3164 17.3309 24.0816 16.5498 23.6396C16.0428 23.7296 15.5235 23.7769 15.0053 23.7769C13.8146 23.7769 12.6592 23.5435 11.5723 23.0827C10.5212 22.6396 9.57848 22.0031 8.76801 21.1931C7.95845 20.3833 7.32262 19.4405 6.87881 18.39C6.4183 17.3023 6.1853 16.1476 6.1853 14.9567C6.1853 14.4468 6.23108 13.9362 6.31805 13.4365C5.88936 12.6654 5.66116 11.7929 5.66116 10.9051C5.66116 9.5105 6.20453 8.19923 7.19032 7.21321C8.17657 6.22673 9.48784 5.68359 10.8824 5.68359C11.7366 5.68359 12.5807 5.89668 13.331 6.29562C13.3324 6.29539 13.334 6.29539 13.3351 6.29494C13.8821 6.19011 14.444 6.13724 15.0053 6.13724C16.1957 6.13724 17.3508 6.37047 18.4378 6.83029C19.4877 7.27455 20.4316 7.91039 21.2409 8.72017C22.0514 9.53018 22.687 10.4734 23.1313 11.5237C23.5918 12.6112 23.8248 13.7661 23.8248 14.9567C23.8248 15.4935 23.7742 16.0307 23.6778 16.5555C24.1095 17.3296 24.3391 18.205 24.3391 19.0958C24.3388 20.4904 23.7962 21.8019 22.8097 22.7875Z" fill="#336699"/>
</svg>
