<?xml version="1.0" standalone="no"?>
<!DOCTYPE svg PUBLIC "-//W3C//DTD SVG 20010904//EN"
 "http://www.w3.org/TR/2001/REC-SVG-20010904/DTD/svg10.dtd">
<svg version="1.0" xmlns="http://www.w3.org/2000/svg"
 width="260.000000pt" height="260.000000pt" viewBox="0 0 260.000000 260.000000"
 preserveAspectRatio="xMidYMid meet">
<metadata>
Created by potrace 1.11, written by Peter Selinger 2001-2013
</metadata>
<g transform="translate(0.000000,260.000000) scale(0.100000,-0.100000)"
fill="#000000" stroke="none">
<path d="M1135 2564 c-11 -3 -47 -9 -80 -15 -110 -21 -199 -51 -321 -109 -283
-136 -507 -373 -625 -661 -44 -106 -57 -150 -79 -276 -57 -320 14 -656 198
-933 92 -139 268 -308 396 -382 137 -79 246 -123 398 -160 80 -20 118 -23 273
-23 244 1 359 27 570 130 308 150 548 425 654 750 49 150 56 203 56 400 0 201
-7 248 -61 412 -141 435 -523 765 -985 853 -96 19 -330 27 -394 14z m884 -587
c19 -45 42 -100 51 -122 10 -22 23 -56 30 -76 l13 -36 -226 -226 c-125 -124
-227 -229 -227 -234 0 -4 104 -112 230 -238 127 -126 230 -234 230 -240 0 -6
-64 -74 -143 -153 l-142 -142 -235 235 c-129 129 -239 235 -243 235 -4 0 -111
-103 -238 -230 l-230 -230 -37 16 c-20 9 -80 33 -132 54 -52 21 -107 44 -122
51 l-28 12 0 612 0 612 91 92 91 91 616 0 617 0 34 -83z"/>
<path d="M960 1416 c0 -140 3 -257 8 -259 4 -2 123 113 264 255 l257 258 -264
0 -265 0 0 -254z"/>
</g>
</svg>
